<svg width="19" height="17" viewBox="0 0 19 17" fill="none" xmlns="http://www.w3.org/2000/svg">
<path d="M11.5824 16.8337C12.135 16.8337 12.6649 16.6142 13.0556 16.2235C13.4463 15.8328 13.6658 15.3029 13.6658 14.7503C13.6658 14.1978 13.4463 13.6679 13.0556 13.2772C12.6649 12.8865 12.135 12.667 11.5824 12.667C11.0299 12.667 10.5 12.8865 10.1093 13.2772C9.71859 13.6679 9.4991 14.1978 9.4991 14.7503C9.4991 15.3029 9.71859 15.8328 10.1093 16.2235C10.5 16.6142 11.0299 16.8337 11.5824 16.8337ZM4.29077 16.8337C4.8433 16.8337 5.37321 16.6142 5.76391 16.2235C6.15461 15.8328 6.3741 15.3029 6.3741 14.7503C6.3741 14.1978 6.15461 13.6679 5.76391 13.2772C5.37321 12.8865 4.8433 12.667 4.29077 12.667C3.73823 12.667 3.20833 12.8865 2.81763 13.2772C2.42693 13.6679 2.20743 14.1978 2.20743 14.7503C2.20743 15.3029 2.42693 15.8328 2.81763 16.2235C3.20833 16.6142 3.73823 16.8337 4.29077 16.8337ZM17.872 2.17012C18.1321 2.16173 18.3786 2.05253 18.5596 1.86562C18.7406 1.67871 18.8418 1.42873 18.8418 1.16855C18.8418 0.908379 18.7406 0.658403 18.5596 0.471489C18.3786 0.284576 18.1321 0.175379 17.872 0.166992H16.6731C15.7335 0.166992 14.921 0.819075 14.7168 1.73574L13.4116 7.61282C13.2074 8.52949 12.3949 9.18157 11.4554 9.18157H3.63035L2.12827 3.17116H11.8626C12.1202 3.1594 12.3634 3.0488 12.5415 2.86236C12.7196 2.67591 12.819 2.42798 12.819 2.17012C12.819 1.91226 12.7196 1.66432 12.5415 1.47788C12.3634 1.29143 12.1202 1.18083 11.8626 1.16908H2.12827C1.82375 1.16899 1.52323 1.23832 1.24953 1.37182C0.97584 1.50531 0.736185 1.69945 0.548786 1.93948C0.361387 2.1795 0.231178 2.45909 0.168058 2.75699C0.104937 3.05489 0.110567 3.36326 0.184519 3.65866L1.6866 9.66699C1.79489 10.1005 2.04503 10.4854 2.39724 10.7604C2.74944 11.0354 3.18349 11.1848 3.63035 11.1847H11.4554C12.367 11.1848 13.2515 10.874 13.9626 10.3036C14.6738 9.73311 15.1691 8.93718 15.3668 8.0472L16.6731 2.17012H17.872Z" fill="black"/>
</svg>
