<svg width="16" height="16" viewBox="0 0 16 16" fill="none" xmlns="http://www.w3.org/2000/svg">
<path fill="#000000"
      d="M15.1061 0.276855H0.895207C0.553451 0.276855 0.277344 0.552963 0.277344 0.894719V15.1056C0.277344 15.4473 0.553451 15.7234 0.895207 15.7234H15.1061C15.4478 15.7234 15.7239 15.4473 15.7239 15.1056V0.894719C15.7239 0.552963 15.4478 0.276855 15.1061 0.276855ZM13.322 4.78533H12.0882C11.1208 4.78533 10.9336 5.24486 10.9336 5.92065V7.40932H13.2428L12.9416 9.73982H10.9336V15.7234H8.52582V9.74175H6.51197V7.40932H8.52582V5.69088C8.52582 3.69634 9.74417 2.60929 11.5244 2.60929C12.3778 2.60929 13.1096 2.67301 13.3239 2.70197V4.78533H13.322Z"/>
</svg>
