<svg width="16" height="16" viewBox="0 0 16 16" fill="none" xmlns="http://www.w3.org/2000/svg">
<path fill="#000000"
        d="M8.00058 5.39658C6.56699 5.39658 5.39707 6.5665 5.39707 8.00009C5.39707 9.43368 6.56699 10.6036 8.00058 10.6036C9.43418 10.6036 10.6041 9.43368 10.6041 8.00009C10.6041 6.5665 9.43418 5.39658 8.00058 5.39658ZM15.8092 8.00009C15.8092 6.92197 15.8189 5.85361 15.7584 4.77744C15.6978 3.52744 15.4127 2.41806 14.4986 1.504C13.5826 0.587983 12.4752 0.30478 11.2252 0.244233C10.1471 0.183686 9.07871 0.193452 8.00253 0.193452C6.92441 0.193452 5.85605 0.183686 4.77988 0.244233C3.52988 0.30478 2.4205 0.589936 1.50644 1.504C0.590425 2.42001 0.307222 3.52744 0.246675 4.77744C0.186128 5.85556 0.195893 6.92392 0.195893 8.00009C0.195893 9.07626 0.186128 10.1466 0.246675 11.2227C0.307222 12.4727 0.592378 13.5821 1.50644 14.4962C2.42246 15.4122 3.52988 15.6954 4.77988 15.7559C5.858 15.8165 6.92636 15.8067 8.00253 15.8067C9.08066 15.8067 10.149 15.8165 11.2252 15.7559C12.4752 15.6954 13.5846 15.4102 14.4986 14.4962C15.4146 13.5802 15.6978 12.4727 15.7584 11.2227C15.8209 10.1466 15.8092 9.07822 15.8092 8.00009ZM8.00058 12.0059C5.78378 12.0059 3.99472 10.2169 3.99472 8.00009C3.99472 5.78329 5.78378 3.99423 8.00058 3.99423C10.2174 3.99423 12.0064 5.78329 12.0064 8.00009C12.0064 10.2169 10.2174 12.0059 8.00058 12.0059ZM12.1705 4.76572C11.6529 4.76572 11.235 4.34775 11.235 3.83017C11.235 3.31259 11.6529 2.89462 12.1705 2.89462C12.6881 2.89462 13.1061 3.31259 13.1061 3.83017C13.1062 3.95307 13.0821 4.0748 13.0352 4.18837C12.9882 4.30195 12.9193 4.40514 12.8324 4.49205C12.7455 4.57895 12.6423 4.64786 12.5287 4.69482C12.4151 4.74178 12.2934 4.76587 12.1705 4.76572Z"/>
</svg>
