<svg width="17" height="16" viewBox="0 0 17 16" fill="none" xmlns="http://www.w3.org/2000/svg">
<path d="M2.95169 1.99153C1.79301 3.1485 1.1191 4.70376 1.06729 6.34035C1.01547 7.97695 1.58966 9.57171 2.67283 10.7997C3.756 12.0276 5.26665 12.7963 6.89691 12.9492C8.49746 13.0992 10.095 12.6446 11.3759 11.6767L14.7071 15.0087L14.7071 15.0087C14.7899 15.0915 14.8883 15.1572 14.9965 15.2021C15.1048 15.2469 15.2208 15.27 15.3379 15.27C15.4551 15.27 15.5711 15.2469 15.6793 15.2021C15.7875 15.1572 15.8859 15.0915 15.9687 15.0087C16.0516 14.9258 16.1173 14.8275 16.1621 14.7192C16.2069 14.611 16.23 14.495 16.23 14.3779C16.23 14.2607 16.2069 14.1447 16.1621 14.0365C16.1173 13.9282 16.0516 13.8299 15.9687 13.747L15.9687 13.747L12.637 10.4161C13.6023 9.13509 14.0549 7.53858 13.904 5.93955C13.7503 4.31066 12.9818 2.80151 11.7548 1.71913C10.5279 0.636745 8.9347 0.0624375 7.29935 0.113042C5.664 0.163647 4.10936 0.835356 2.95169 1.99153ZM2.95169 1.99153L3.02235 2.06229L2.95169 1.99153ZM10.7897 3.25378C11.2273 3.68428 11.5753 4.19715 11.8136 4.76281C12.052 5.32848 12.176 5.93574 12.1785 6.54956C12.181 7.16339 12.062 7.77164 11.8282 8.33923C11.5945 8.90681 11.2507 9.4225 10.8166 9.85654C10.3826 10.2906 9.86687 10.6344 9.29929 10.8682C8.7317 11.1019 8.12345 11.221 7.50962 11.2185C6.8958 11.216 6.28854 11.092 5.72287 10.8536C5.15721 10.6152 4.64434 10.2672 4.21384 9.82966C3.35353 8.95522 2.8736 7.77625 2.8786 6.54956C2.88359 5.32288 3.37311 4.14786 4.24051 3.28045C5.10792 2.41304 6.28294 1.92353 7.50962 1.91854C8.73631 1.91354 9.91528 2.39347 10.7897 3.25378Z" fill="#000000"/>
</svg>
